<svg width="33" height="32" viewBox="0 0 33 32" fill="none" xmlns="http://www.w3.org/2000/svg">
<path d="M16.5 0.150887C12.6414 0.151047 8.9088 1.5242 5.96999 4.02464C3.03118 6.52508 1.07798 9.98965 0.459886 13.7984C-0.158212 17.6072 0.599123 21.5116 2.59638 24.8131C4.59364 28.1146 7.70048 30.5977 11.361 31.8181C12.1735 31.9603 12.4782 31.4728 12.4782 31.0462C12.4782 30.6603 12.4579 29.3806 12.4579 28.0196C8.37504 28.7712 7.31879 27.0244 6.99379 26.1103C6.63317 25.2213 6.06149 24.4335 5.32817 23.8149C4.75942 23.5103 3.94692 22.7587 5.30784 22.7384C5.82749 22.7948 6.3259 22.9756 6.76082 23.2656C7.19574 23.5555 7.55436 23.946 7.80629 24.404C8.02855 24.8033 8.3274 25.1547 8.68573 25.4383C9.04406 25.7219 9.45482 25.9319 9.89447 26.0565C10.3341 26.181 10.794 26.2176 11.2478 26.1641C11.7017 26.1105 12.1404 25.968 12.5391 25.7446C12.6094 24.9185 12.9776 24.1461 13.575 23.5712C9.95942 23.165 6.18129 21.7634 6.18129 15.5478C6.15846 13.9328 6.75441 12.3702 7.84692 11.1806C7.35013 9.77698 7.40826 8.23658 8.00942 6.87437C8.00942 6.87437 9.37031 6.44779 12.4782 8.54C15.1371 7.8087 17.9442 7.8087 20.6032 8.54C23.7109 6.4275 25.0719 6.87437 25.0719 6.87437C25.6732 8.23657 25.7313 9.77699 25.2344 11.1806C26.3302 12.3682 26.9267 13.9321 26.9 15.5478C26.9 21.7837 23.1016 23.165 19.486 23.5712C19.8738 23.9643 20.1725 24.4362 20.3617 24.9549C20.551 25.4737 20.6264 26.027 20.5829 26.5775C20.5829 28.751 20.5625 30.4978 20.5625 31.0462C20.5625 31.4728 20.8672 31.9806 21.6797 31.8181C25.3338 30.5878 28.4317 28.0989 30.4205 24.7957C32.4092 21.4925 33.1594 17.5901 32.537 13.785C31.9146 9.97993 29.9602 6.51987 27.0227 4.02247C24.0852 1.52507 20.3557 0.152893 16.5 0.150887V0.150887Z" fill="#A3ABB2"/>
</svg>
